<svg xmlns="http://www.w3.org/2000/svg" width="50" height="40" viewBox="0 0 50 40"><g transform="translate(0 -49.173)"><g transform="translate(0 49.173)"><path d="M100.9,307.558a.976.976,0,0,0-.976-.976H92.362a.976.976,0,1,0,0,1.953H99.92A.976.976,0,0,0,100.9,307.558Z" transform="translate(-82.46 -281.703)" fill="#212121"/><path d="M92.362,360.3a.976.976,0,0,0,0,1.953h5.191a.976.976,0,0,0,0-1.953Z" transform="translate(-82.46 -330.225)" fill="#212121"/><path d="M39.68,82.48q-.484,0-.957-.044v3.65a1.151,1.151,0,0,1-1.148,1.152H4.446A1.151,1.151,0,0,1,3.3,86.087V59.775h11.7v5.712a.964.964,0,0,0,.421.8.985.985,0,0,0,.9.11l4.7-1.75,4.7,1.75a.985.985,0,0,0,.9-.11.964.964,0,0,0,.421-.8V59.775h11.7V63.8q.472-.044.957-.044.5,0,1,.047V59.775h.368a.972.972,0,0,0,.977-.967V50.14a.972.972,0,0,0-.977-.967H.977A.972.972,0,0,0,0,50.14v8.668a.972.972,0,0,0,.977.967h.368V86.087a3.1,3.1,0,0,0,3.1,3.086H37.575a3.1,3.1,0,0,0,3.1-3.086V82.433q-.492.047-1,.048ZM27.028,51.107H40.068v6.734H27.028Zm-10.08-.021h8.127v13L21.355,62.7a.986.986,0,0,0-.688,0l-3.72,1.386ZM1.953,57.841V51.107H14.994v6.734H1.953Z" transform="translate(0 -49.173)" fill="#212121"/><g transform="translate(29.361 13.363)"><ellipse cx="10.319" cy="10.428" rx="10.319" ry="10.428" fill="#c73536"/><path d="M374.314,266.789a.977.977,0,0,1-.692-.287l-1.688-1.695a.976.976,0,1,1,1.383-1.378l.933.937,2.69-3.22a.976.976,0,1,1,1.5,1.252l-3.376,4.041a.976.976,0,0,1-.706.349Z" transform="translate(-364.713 -253.882)" fill="#fff"/></g></g></g></svg>